<?xml version="1.0" encoding="UTF-8" standalone="no"?>
<svg
   viewBox="-.6 -.6 55.25 55.25"
   version="1.1"
   id="svg5"

   xmlns="http://www.w3.org/2000/svg"
   xmlns:svg="http://www.w3.org/2000/svg">
  <defs
     id="defs1" />
  <path
     id="path7656"
     style="fill:none;stroke:currentColor;stroke-width:1.00154;stroke-linejoin:round"
     d="m 29.670132,37.261529 v 6.228584 m -5.302658,0 v -6.267818" />
  <path
     d="m 35.762547,24.996911 4.174433,5.837976 c 0.188038,0.225986 0.263252,0.489637 0.263252,0.790953 0,0.338979 -0.112822,0.677958 -0.376075,0.903943 -0.263252,0.263652 -0.564112,0.376645 -0.940186,0.376645 -0.300861,0 -0.564113,-0.07533 -0.827365,-0.263651 l -7.67193,-5.988635 -2.143628,5.423669 c -0.112822,0.26365 -0.263252,0.451972 -0.488897,0.602629 -0.225646,0.150658 -0.488898,0.225988 -0.75215,0.225988 -0.263253,0 -0.526505,-0.07533 -0.752151,-0.225988 -0.225644,-0.150657 -0.376074,-0.338979 -0.488897,-0.602629 l -2.143628,-5.423669 -7.67193,5.988635 c -0.263252,0.188321 -0.526504,0.263651 -0.827364,0.263651 -0.376074,0 -0.676935,-0.112993 -0.940187,-0.376645 -0.263253,-0.225985 -0.376075,-0.564964 -0.376075,-0.903943 0,-0.301316 0.07522,-0.564967 0.263252,-0.790953 l 4.136824,-5.837976 c -0.225644,0 -0.413682,-0.03767 -0.639327,-0.07533 -0.225644,-0.03767 -0.413682,-0.07533 -0.564112,-0.188321 -0.188037,-0.112993 -0.30086,-0.225986 -0.413683,-0.414307 -0.07522,-0.150658 -0.150429,-0.376644 -0.150429,-0.640295 0,-0.263651 0.112823,-0.527301 0.30086,-0.790951 l 3.271851,-4.595052 c -0.263252,-0.07533 -0.488897,-0.225988 -0.676934,-0.451973 -0.15043,-0.225987 -0.225646,-0.489636 -0.225646,-0.790952 0,-0.112993 0,-0.26365 0.07522,-0.414308 0.03761,-0.112993 0.112822,-0.225986 0.188037,-0.376643 l 6.581312,-9.1901082 c 0.112822,-0.1883217 0.263253,-0.3013149 0.45129,-0.414308 0.188038,-0.112993 0.413682,-0.1506575 0.60172,-0.1506575 0.225645,0 0.413682,0.037664 0.601719,0.1506575 0.188037,0.1129931 0.338468,0.2259863 0.451291,0.414308 l 6.581313,9.1901052 c 0.07522,0.150657 0.150428,0.26365 0.225643,0.376643 0.03761,0.150658 0.07522,0.301315 0.07522,0.414308 0,0.301316 -0.112822,0.564965 -0.263252,0.790952 -0.15043,0.225985 -0.376075,0.376643 -0.676934,0.451973 l 3.271851,4.595052 c 0.188037,0.26365 0.300861,0.5273 0.300861,0.790951 0,0.263651 -0.03761,0.489637 -0.15043,0.640295 -0.112823,0.188321 -0.225646,0.301314 -0.413683,0.414307 -0.15043,0.112993 -0.338467,0.150658 -0.564112,0.188321 -0.188037,0.03767 -0.413683,0.07533 -0.676936,0.07533 z"
     style="fill:none;stroke:currentColor;stroke-width:1;stroke-linejoin:round"
     id="path8888" />
  <path
     id="path7659"
     style="fill:none;stroke:currentColor;stroke-width:1;stroke-linejoin:round"
     d="m 37.570897,32.263071 3.682345,5.16308 c 0.188037,0.26365 0.263252,0.527301 0.263252,0.790952 0,0.376642 -0.112821,0.677959 -0.376073,0.941609 -0.263253,0.26365 -0.564113,0.376642 -0.940189,0.376642 -0.30086,0 -0.564112,-0.07533 -0.789757,-0.263649 l -5.829162,-4.519724 v 3.465122 c 0,0.338979 -0.112823,0.677959 -0.376076,0.941609 -0.263252,0.26365 -0.564111,0.376642 -0.940187,0.376642 -0.376074,0 -0.714541,-0.150657 -0.977795,-0.451972 l -4.287254,-4.821038 -4.287255,4.821038 c -0.112823,0.150658 -0.263253,0.263651 -0.451291,0.33898 -0.188036,0.07533 -0.376073,0.112992 -0.564112,0.112992 -0.338468,0 -0.639327,-0.112992 -0.902579,-0.376642 -0.263253,-0.263651 -0.376075,-0.60263 -0.376075,-0.941609 v -3.465122 l -5.829163,4.519724 c -0.225645,0.188321 -0.488897,0.263649 -0.789757,0.263649 -0.376076,0 -0.676935,-0.112992 -0.940188,-0.376642 -0.263253,-0.263651 -0.376074,-0.564967 -0.376074,-0.941609 0,-0.263651 0.07522,-0.527303 0.263252,-0.790952 l 3.682345,-5.16308" />
  <path
     stroke="currentColor"
     fill="none"
     stroke-width="1"
     stroke-dasharray="none"
     stroke-opacity="1"
     d="m 5.5692713,43.440894 4.9862937,0.04922 h 2.798725 c 0.266592,0 -1.459187,-1.719107 -1.162333,-2.137067 0.307392,-0.432797 1.871327,0.650511 2.36158,0.44691 0.434256,-0.180346 0.618288,-1.260927 1.088505,-1.260927 0.470216,0 0.328611,1.144593 0.780888,1.273231 0.550867,0.156681 2.090778,-0.836935 2.496931,-0.433149 0.448591,0.445976 -1.33954,2.100895 -0.707062,2.111002 1.06883,0.01708 3.829977,0 3.829977,0 h 26.327199"
     id="path3293"
     style="stroke:currentColor;stroke-width:1;stroke-linecap:round" />
  <path
     stroke="currentColor"
     fill="none"
     stroke-width="1"
     stroke-dasharray="none"
     stroke-opacity="1"
     d="m 42.094804,49.332247 h -3.927221 -2.061588 c -0.266592,0 1.459187,-1.719106 1.162333,-2.137066 -0.307391,-0.432797 -1.871325,0.650512 -2.361579,0.44691 -0.434257,-0.180346 -0.618288,-1.260927 -1.088505,-1.260927 -0.470217,0 -0.328612,1.144593 -0.780889,1.273232 -0.550867,0.15668 -2.090778,-0.836936 -2.496931,-0.43315 -0.448591,0.445977 1.33954,2.100895 0.707063,2.111001 -1.068829,0.01708 -3.829978,0 -3.829978,0 H 11.820402"
     id="path1"
     style="stroke:currentColor;stroke-width:1" />
  <circle
     cx="27"
     cy="27.000002"
     fill="none"
     stroke="currentColor"
     stroke-width="1"
     stroke-opacity="1"
     id="circle1"
     style="stroke:currentColor;stroke-opacity:1"
     r="27" />
</svg>
