<?xml version="1.0" encoding="UTF-8" standalone="no"?>
<!-- Created with Inkscape (http://www.inkscape.org/) -->

<svg
   width="5.2172608mm"
   height="4.1594038mm"
   viewBox="0 0 19.718782 15.720582"
   version="1.1"
   id="svg5"
   xml:space="preserve"
   xmlns="http://www.w3.org/2000/svg"
   xmlns:svg="http://www.w3.org/2000/svg"><defs
     id="defs2" /><g
     id="layer1"
     style="fill:#000000;fill-opacity:1"
     transform="translate(-386.12499,-589.87496)"><g
       id="g1045"
       style="fill:#000000;fill-opacity:1"><g
         style="display:inline;fill:currentColor"
         id="g315"
         transform="translate(386.12501,587.87501)"><path
           id="path303"
           d="m 1.4999991,2.0000039 a 1.5,1.5 0 0 0 -1.50000001685797,1.5 V 12.500004 A 1.5,1.5 0 0 0 1.4999991,14.000004 h 9.2792969 c -0.01825,-0.168404 -0.02734,-0.338581 -0.02734,-0.511719 0,-0.164355 0.007,-0.328169 0.02344,-0.488281 H 1.4999991 a 0.5,0.5 0 0 1 -0.49999999,-0.5 V 3.5000039 a 0.5,0.5 0 0 1 0.49999999,-0.5 H 14.499999 a 0.5,0.5 0 0 1 0.5,0.5 v 5.2773439 c 0.159486,-0.016337 0.322635,-0.023437 0.486329,-0.023437 0.1738,0 0.344643,0.00896 0.513671,0.027344 V 3.5000039 a 1.5,1.5 0 0 0 -1.5,-1.5 z" /><path
           d="M 7,5.5 A 0.5,0.5 0 0 1 7.5,5 h 5 a 0.5,0.5 0 0 1 0,1 h -5 A 0.5,0.5 0 0 1 7,5.5 Z M 5.504,4.646 a 0.5,0.5 0 0 1 0,0.708 l -1.5,1.5 a 0.5,0.5 0 0 1 -0.708,0 l -0.5,-0.5 A 0.5006316,0.5006316 0 1 1 3.504,5.646 L 3.65,5.793 4.796,4.646 a 0.5,0.5 0 0 1 0.708,0 z M 7,9.5 A 0.5,0.5 0 0 1 7.5,9 h 5 a 0.5,0.5 0 0 1 0,1 h -5 A 0.5,0.5 0 0 1 7,9.5 Z M 5.504,8.646 a 0.5,0.5 0 0 1 0,0.708 l -1.5,1.5 a 0.5,0.5 0 0 1 -0.708,0 l -0.5,-0.5 A 0.5006316,0.5006316 0 0 1 3.504,9.646 L 3.65,9.793 4.796,8.646 a 0.5,0.5 0 0 1 0.708,0 z"
           id="path305"
           style="display:inline" /></g><g
         style="display:inline;fill:currentColor"
         id="g340"
         transform="matrix(0.52913387,0,0,0.52913387,397.37765,597.12946)"><path
           d="M 8,15 A 7,7 0 1 1 8,1 7,7 0 0 1 8,15 Z m 0,1 A 8,8 0 1 0 8,0 8,8 0 0 0 8,16 Z"
           id="path328"
           style="display:inline;stroke:none;stroke-width:1.89286;stroke-dasharray:none;stroke-opacity:1" /><path
           d="m 8,4 a 0.5,0.5 0 0 1 0.5,0.5 v 3 h 3 a 0.5,0.5 0 0 1 0,1 h -3 v 3 a 0.5,0.5 0 0 1 -1,0 v -3 h -3 a 0.5,0.5 0 0 1 0,-1 h 3 v -3 A 0.5,0.5 0 0 1 8,4 Z"
           id="path330"
           style="display:inline" /></g></g></g></svg>
