<?xml version="1.0" encoding="UTF-8" standalone="no"?>
<!-- Created with Inkscape (http://www.inkscape.org/) -->

<svg
   width="4.5899734mm"
   height="3.4146976mm"
   viewBox="0 0 17.347932 12.905944"
   version="1.1"
   id="svg5"
   xml:space="preserve"
   xmlns="http://www.w3.org/2000/svg"
   xmlns:svg="http://www.w3.org/2000/svg"><defs
     id="defs2" /><g
     id="layer1"
     style="fill:#000000;fill-opacity:1"
     transform="translate(-385.93749,-610.93746)"><g
       style="fill:currentColor"
       id="g1078"
       transform="translate(385.93751,608.93751)"><path
         id="path1066"
         d="m 1.4999991,2.0000044 a 1.5,1.5 0 0 0 -1.50000002126868,1.5 V 12.500005 A 1.5,1.5 0 0 0 1.4999991,14.000005 h 7.3339846 l 0.3984375,-1 H 1.4999991 a 0.5,0.5 0 0 1 -0.5,-0.5 V 3.5000044 a 0.5,0.5 0 0 1 0.5,-0.5 H 14.499999 a 0.5,0.5 0 0 1 0.5,0.5 v 2.951172 l 0.121094,-0.1210938 c 0.102254,-0.1025125 0.238822,-0.1523437 0.375,-0.1523438 0.136178,0 0.270793,0.049831 0.373047,0.1523438 L 15.999999,6.460942 V 3.5000044 a 1.5,1.5 0 0 0 -1.5,-1.5 z m 14.4999999,8.1230466 -1,1 v 1.376954 a 0.5,0.5 0 0 1 -0.5,0.5 h -1.375 l -0.958984,0.958984 c -0.01584,0.01573 -0.03512,0.02741 -0.05273,0.04102 h 2.386718 a 1.5,1.5 0 0 0 1.5,-1.5 z" /><path
         id="path1068"
         d="M 5.0195304,4.5156294 A 0.5,0.5 0 0 0 4.7968742,4.6464888 L 3.6503898,5.7929732 3.5039054,5.6464888 A 0.5006316,0.5006316 0 0 0 2.7968741,6.3535201 l 0.5000001,0.5 a 0.5,0.5 0 0 0 0.7070312,0 l 1.5000001,-1.5 a 0.5,0.5 0 0 0 0,-0.7070313 0.5,0.5 0 0 0 -0.4843751,-0.1308594 z m 2.4804689,0.484375 a 0.5,0.5 0 0 0 -0.5000001,0.5000001 0.5,0.5 0 0 0 0.5000001,0.5 h 4.9999997 a 0.50000005,0.50000005 0 0 0 0,-1.0000001 z M 5.0195304,8.5156295 A 0.5,0.5 0 0 0 4.7968742,8.6464889 L 3.6503898,9.7929733 3.5039054,9.6464889 A 0.5006316,0.5006316 0 0 0 2.7968741,10.35352 l 0.5000001,0.5 a 0.5,0.5 0 0 0 0.7070312,0 L 5.5039055,9.3535202 a 0.5,0.5 0 0 0 0,-0.7070313 0.5,0.5 0 0 0 -0.4843751,-0.1308594 z m 2.4804689,0.484375 a 0.5,0.5 0 0 0 -0.5000001,0.5 0.5,0.5 0 0 0 0.5000001,0.5000005 h 3.9511717 l 1,-1.0000005 z" /></g></g><g
     id="layer3"
     transform="translate(-385.93749,-610.93746)"><g
       style="display:inline;fill:currentColor;fill-opacity:1"
       id="g326"
       transform="matrix(0.52911073,0,0,0.52911073,394.81919,615.37782)"><g
         id="path317"><path
           style="color:#000000;fill:#000000;-inkscape-stroke:none"
           d="m 12.146,0.146 a 0.5,0.5 0 0 1 0.708,0 l 3,3 a 0.5,0.5 0 0 1 0,0.708 l -10,10 a 0.5,0.5 0 0 1 -0.168,0.11 l -5,2 a 0.5,0.5 0 0 1 -0.65,-0.65 l 2,-5 a 0.5,0.5 0 0 1 0.11,-0.168 z M 11.207,2.5 13.5,4.793 14.793,3.5 12.5,1.207 Z m 1.586,3 L 10.5,3.207 4,9.707 V 10 H 4.5 A 0.5,0.5 0 0 1 5,10.5 V 11 H 5.5 A 0.5,0.5 0 0 1 6,11.5 V 12 H 6.293 Z M 3.032,10.675 2.926,10.781 1.398,14.602 5.219,13.074 5.325,12.968 A 0.5,0.5 0 0 1 5,12.5 V 12 H 4.5 A 0.5,0.5 0 0 1 4,11.5 V 11 H 3.5 A 0.5,0.5 0 0 1 3.032,10.675 Z"
           id="path1249" /></g></g></g></svg>
