<?xml version="1.0" encoding="UTF-8" standalone="no"?>
<!-- Created with Inkscape (http://www.inkscape.org/) -->

<svg
   width="210mm"
   height="297mm"
   viewBox="0 0 793.70081 1122.5197"
   version="1.1"
   id="svg5"
   xml:space="preserve"
   sodipodi:docname="FlorestarefaIcons.svg"
   inkscape:export-filename="EditCards_plain.svg"
   inkscape:export-xdpi="96"
   inkscape:export-ydpi="96"
   inkscape:version="1.2.1 (9c6d41e410, 2022-07-14)"
   xmlns:inkscape="http://www.inkscape.org/namespaces/inkscape"
   xmlns:sodipodi="http://sodipodi.sourceforge.net/DTD/sodipodi-0.dtd"
   xmlns="http://www.w3.org/2000/svg"
   xmlns:svg="http://www.w3.org/2000/svg"><sodipodi:namedview
     id="namedview7"
     pagecolor="#ffffff"
     bordercolor="#000000"
     borderopacity="0.25"
     inkscape:showpageshadow="2"
     inkscape:pageopacity="0.0"
     inkscape:pagecheckerboard="0"
     inkscape:deskcolor="#d1d1d1"
     inkscape:document-units="mm"
     showgrid="false"
     showguides="false"
     inkscape:zoom="11.313709"
     inkscape:cx="367.9165"
     inkscape:cy="599.93591"
     inkscape:window-width="1920"
     inkscape:window-height="991"
     inkscape:window-x="-9"
     inkscape:window-y="-9"
     inkscape:window-maximized="1"
     inkscape:current-layer="layer2"><inkscape:grid
       type="xygrid"
       id="grid8007" /><sodipodi:guide
       position="420.684,527.985"
       inkscape:color="rgb(167,0,255)"
       inkscape:label=""
       orientation="-0,1"
       id="guide8195"
       inkscape:locked="false" /><sodipodi:guide
       position="420.684,528.973"
       inkscape:color="rgb(167,0,255)"
       inkscape:label="End"
       orientation="-0,1"
       id="guide8199"
       inkscape:locked="false" /><sodipodi:guide
       position="424,530.375"
       inkscape:color="rgb(167,0,255)"
       inkscape:label="Start"
       orientation="1,0"
       id="guide8231"
       inkscape:locked="false" /><sodipodi:guide
       position="425.004,530.375"
       inkscape:color="rgb(167,0,255)"
       inkscape:label=""
       orientation="1,0"
       id="guide8235"
       inkscape:locked="false" /><sodipodi:guide
       position="424,530.375"
       inkscape:color="rgb(167,0,255)"
       inkscape:label=""
       orientation="1,1.38752e-05"
       id="guide8237"
       inkscape:locked="false" /><sodipodi:guide
       position="425.004,530.375"
       inkscape:color="rgb(167,0,255)"
       inkscape:label="Crossing 1"
       orientation="1,1.38752e-05"
       id="guide8239"
       inkscape:locked="false" /></sodipodi:namedview><defs
     id="defs2" /><g
     inkscape:groupmode="layer"
     id="layer2"
     inkscape:label="Manage Cards"
     transform="translate(-8.10156,8.43367)"
     inkscape:highlight-color="#2144f3"><g
       id="g9236"
       transform="translate(-14.648441,-24.18367)"
       style="fill:#000000;fill-opacity:1"
       inkscape:export-filename=".\manageCards.svg"
       inkscape:export-xdpi="96"
       inkscape:export-ydpi="96"><g
         style="fill:currentColor"
         id="g8005"
         transform="translate(409.0007,580.54266)"><path
           id="path7993"
           d="m 1.4992997,2.0003125 a 1.5,1.5 0 0 0 -1.50000007875,1.5 v 9.0000005 a 1.5,1.5 0 0 0 1.50000007875,1.5 h 9.6406253 c -0.07211,-0.162835 -0.111328,-0.337727 -0.111328,-0.511719 0,-0.1659 0.03787,-0.331903 0.103515,-0.488281 H 1.4992997 a 0.5,0.5 0 0 1 -0.50000006,-0.5 V 3.5003125 a 0.5,0.5 0 0 1 0.50000006,-0.5 H 14.4993 a 0.5,0.5 0 0 1 0.5,0.5 v 5.6093751 c 0.167134,-0.076692 0.347838,-0.1171875 0.527344,-0.1171875 0.160302,0 0.320843,0.034361 0.472656,0.095703 V 3.5003125 a 1.5,1.5 0 0 0 -1.5,-1.5 z" /><path
           d="M 7,5.5 A 0.5,0.5 0 0 1 7.5,5 h 5 a 0.5,0.5 0 0 1 0,1 h -5 A 0.5,0.5 0 0 1 7,5.5 Z M 5.504,4.646 a 0.5,0.5 0 0 1 0,0.708 l -1.5,1.5 a 0.5,0.5 0 0 1 -0.708,0 l -0.5,-0.5 A 0.5006316,0.5006316 0 1 1 3.504,5.646 L 3.65,5.793 4.796,4.646 a 0.5,0.5 0 0 1 0.708,0 z M 7,9.5 A 0.5,0.5 0 0 1 7.5,9 h 5 a 0.5,0.5 0 0 1 0,1 h -5 A 0.5,0.5 0 0 1 7,9.5 Z M 5.504,8.646 a 0.5,0.5 0 0 1 0,0.708 l -1.5,1.5 a 0.5,0.5 0 0 1 -0.708,0 l -0.5,-0.5 A 0.5006316,0.5006316 0 0 1 3.504,9.646 L 3.65,9.793 4.796,8.646 a 0.5,0.5 0 0 1 0.708,0 z"
           id="path7995"
           style="display:inline" /></g><g
         style="fill:#000000;fill-opacity:1"
         id="g7990"
         transform="matrix(0.52907581,0,0,0.52907581,420.29455,589.7988)"><path
           d="M 8,4.754 A 3.246,3.246 0 1 0 8,11.246 3.246,3.246 0 0 0 8,4.754 Z M 5.754,8 a 2.246,2.246 0 1 1 4.492,0 2.246,2.246 0 0 1 -4.492,0 z"
           id="path7978"
           style="display:inline;fill:#000000;fill-opacity:1" /><path
           d="m 9.796,1.343 c -0.527,-1.79 -3.065,-1.79 -3.592,0 L 6.11,1.662 A 0.873,0.873 0 0 1 4.855,2.182 L 4.563,2.022 C 2.923,1.13 1.13,2.924 2.023,4.563 L 2.182,4.855 A 0.873,0.873 0 0 1 1.662,6.11 L 1.343,6.204 c -1.79,0.527 -1.79,3.065 0,3.592 L 1.662,9.89 a 0.873,0.873 0 0 1 0.52,1.255 l -0.16,0.292 c -0.892,1.64 0.901,3.434 2.541,2.54 l 0.292,-0.159 a 0.873,0.873 0 0 1 1.255,0.52 l 0.094,0.319 c 0.527,1.79 3.065,1.79 3.592,0 L 9.89,14.338 a 0.873,0.873 0 0 1 1.255,-0.52 l 0.292,0.16 c 1.64,0.893 3.434,-0.902 2.54,-2.541 l -0.159,-0.292 a 0.873,0.873 0 0 1 0.52,-1.255 l 0.319,-0.094 c 1.79,-0.527 1.79,-3.065 0,-3.592 L 14.338,6.11 a 0.873,0.873 0 0 1 -0.52,-1.255 l 0.16,-0.292 C 14.871,2.923 13.076,1.13 11.437,2.023 L 11.145,2.182 A 0.873,0.873 0 0 1 9.89,1.662 Z M 7.163,1.626 c 0.246,-0.835 1.428,-0.835 1.674,0 L 8.931,1.945 A 1.873,1.873 0 0 0 11.624,3.06 L 11.915,2.9 c 0.764,-0.415 1.6,0.42 1.184,1.185 L 12.94,4.377 a 1.873,1.873 0 0 0 1.116,2.692 l 0.318,0.094 c 0.835,0.246 0.835,1.428 0,1.674 l -0.319,0.094 a 1.873,1.873 0 0 0 -1.115,2.693 l 0.16,0.291 c 0.415,0.764 -0.42,1.6 -1.185,1.184 L 11.624,12.94 a 1.873,1.873 0 0 0 -2.693,1.116 l -0.094,0.318 c -0.246,0.835 -1.428,0.835 -1.674,0 L 7.069,14.055 A 1.873,1.873 0 0 0 4.377,12.94 L 4.085,13.1 C 3.321,13.515 2.485,12.68 2.901,11.915 L 3.06,11.624 A 1.873,1.873 0 0 0 1.945,8.93 L 1.626,8.836 C 0.791,8.59 0.791,7.408 1.626,7.162 L 1.945,7.068 A 1.873,1.873 0 0 0 3.06,4.377 L 2.9,4.085 C 2.485,3.321 3.32,2.485 4.085,2.901 L 4.377,3.06 A 1.873,1.873 0 0 0 7.069,1.945 Z"
           id="path7980"
           style="display:inline;fill:#000000;fill-opacity:1" /><g
           id="path8486"
           inkscape:label="path8486"
           style="display:inline" /></g></g></g><g
     inkscape:label="Add New Cards"
     inkscape:groupmode="layer"
     id="layer1"
     style="fill:#000000;fill-opacity:1"
     inkscape:highlight-color="#21f33b"><g
       id="g1045"
       style="fill:#000000;fill-opacity:1"
       inkscape:export-filename=".\addCard.svg"
       inkscape:export-xdpi="96"
       inkscape:export-ydpi="96"><g
         style="display:inline;fill:currentColor"
         id="g315"
         transform="translate(386.12501,587.87501)"><path
           id="path303"
           d="m 1.4999991,2.0000039 a 1.5,1.5 0 0 0 -1.50000001685797,1.5 V 12.500004 A 1.5,1.5 0 0 0 1.4999991,14.000004 h 9.2792969 c -0.01825,-0.168404 -0.02734,-0.338581 -0.02734,-0.511719 0,-0.164355 0.007,-0.328169 0.02344,-0.488281 H 1.4999991 a 0.5,0.5 0 0 1 -0.49999999,-0.5 V 3.5000039 a 0.5,0.5 0 0 1 0.49999999,-0.5 H 14.499999 a 0.5,0.5 0 0 1 0.5,0.5 v 5.2773439 c 0.159486,-0.016337 0.322635,-0.023437 0.486329,-0.023437 0.1738,0 0.344643,0.00896 0.513671,0.027344 V 3.5000039 a 1.5,1.5 0 0 0 -1.5,-1.5 z" /><path
           d="M 7,5.5 A 0.5,0.5 0 0 1 7.5,5 h 5 a 0.5,0.5 0 0 1 0,1 h -5 A 0.5,0.5 0 0 1 7,5.5 Z M 5.504,4.646 a 0.5,0.5 0 0 1 0,0.708 l -1.5,1.5 a 0.5,0.5 0 0 1 -0.708,0 l -0.5,-0.5 A 0.5006316,0.5006316 0 1 1 3.504,5.646 L 3.65,5.793 4.796,4.646 a 0.5,0.5 0 0 1 0.708,0 z M 7,9.5 A 0.5,0.5 0 0 1 7.5,9 h 5 a 0.5,0.5 0 0 1 0,1 h -5 A 0.5,0.5 0 0 1 7,9.5 Z M 5.504,8.646 a 0.5,0.5 0 0 1 0,0.708 l -1.5,1.5 a 0.5,0.5 0 0 1 -0.708,0 l -0.5,-0.5 A 0.5006316,0.5006316 0 0 1 3.504,9.646 L 3.65,9.793 4.796,8.646 a 0.5,0.5 0 0 1 0.708,0 z"
           id="path305"
           style="display:inline" /></g><g
         style="display:inline;fill:currentColor"
         id="g340"
         transform="matrix(0.52913387,0,0,0.52913387,397.37765,597.12946)"><path
           d="M 8,15 A 7,7 0 1 1 8,1 7,7 0 0 1 8,15 Z m 0,1 A 8,8 0 1 0 8,0 8,8 0 0 0 8,16 Z"
           id="path328"
           style="display:inline;stroke:none;stroke-width:1.89286;stroke-dasharray:none;stroke-opacity:1" /><path
           d="m 8,4 a 0.5,0.5 0 0 1 0.5,0.5 v 3 h 3 a 0.5,0.5 0 0 1 0,1 h -3 v 3 a 0.5,0.5 0 0 1 -1,0 v -3 h -3 a 0.5,0.5 0 0 1 0,-1 h 3 v -3 A 0.5,0.5 0 0 1 8,4 Z"
           id="path330"
           style="display:inline" /></g></g><g
       style="fill:currentColor"
       id="g1078"
       transform="translate(385.93751,608.93751)"
       inkscape:export-filename=".\editCards.svg"
       inkscape:export-xdpi="96"
       inkscape:export-ydpi="96"><path
         id="path1066"
         d="m 1.4999991,2.0000044 a 1.5,1.5 0 0 0 -1.50000002126868,1.5 V 12.500005 A 1.5,1.5 0 0 0 1.4999991,14.000005 h 7.3339846 l 0.3984375,-1 H 1.4999991 a 0.5,0.5 0 0 1 -0.5,-0.5 V 3.5000044 a 0.5,0.5 0 0 1 0.5,-0.5 H 14.499999 a 0.5,0.5 0 0 1 0.5,0.5 v 2.951172 l 0.121094,-0.1210938 c 0.102254,-0.1025125 0.238822,-0.1523437 0.375,-0.1523438 0.136178,0 0.270793,0.049831 0.373047,0.1523438 L 15.999999,6.460942 V 3.5000044 a 1.5,1.5 0 0 0 -1.5,-1.5 z m 14.4999999,8.1230466 -1,1 v 1.376954 a 0.5,0.5 0 0 1 -0.5,0.5 h -1.375 l -0.958984,0.958984 c -0.01584,0.01573 -0.03512,0.02741 -0.05273,0.04102 h 2.386718 a 1.5,1.5 0 0 0 1.5,-1.5 z" /><path
         id="path1068"
         d="M 5.0195304,4.5156294 A 0.5,0.5 0 0 0 4.7968742,4.6464888 L 3.6503898,5.7929732 3.5039054,5.6464888 A 0.5006316,0.5006316 0 0 0 2.7968741,6.3535201 l 0.5000001,0.5 a 0.5,0.5 0 0 0 0.7070312,0 l 1.5000001,-1.5 a 0.5,0.5 0 0 0 0,-0.7070313 0.5,0.5 0 0 0 -0.4843751,-0.1308594 z m 2.4804689,0.484375 a 0.5,0.5 0 0 0 -0.5000001,0.5000001 0.5,0.5 0 0 0 0.5000001,0.5 h 4.9999997 a 0.50000005,0.50000005 0 0 0 0,-1.0000001 z M 5.0195304,8.5156295 A 0.5,0.5 0 0 0 4.7968742,8.6464889 L 3.6503898,9.7929733 3.5039054,9.6464889 A 0.5006316,0.5006316 0 0 0 2.7968741,10.35352 l 0.5000001,0.5 a 0.5,0.5 0 0 0 0.7070312,0 L 5.5039055,9.3535202 a 0.5,0.5 0 0 0 0,-0.7070313 0.5,0.5 0 0 0 -0.4843751,-0.1308594 z m 2.4804689,0.484375 a 0.5,0.5 0 0 0 -0.5000001,0.5 0.5,0.5 0 0 0 0.5000001,0.5000005 h 3.9511717 l 1,-1.0000005 z" /></g></g><g
     inkscape:groupmode="layer"
     id="layer3"
     inkscape:label="Edit Cards"><g
       style="display:inline;fill:currentColor;fill-opacity:1"
       id="g326"
       transform="matrix(0.52911073,0,0,0.52911073,394.81919,615.37782)"><g
         id="path317"><path
           style="color:#000000;fill:#000000;-inkscape-stroke:none"
           d="m 12.146,0.146 a 0.5,0.5 0 0 1 0.708,0 l 3,3 a 0.5,0.5 0 0 1 0,0.708 l -10,10 a 0.5,0.5 0 0 1 -0.168,0.11 l -5,2 a 0.5,0.5 0 0 1 -0.65,-0.65 l 2,-5 a 0.5,0.5 0 0 1 0.11,-0.168 z M 11.207,2.5 13.5,4.793 14.793,3.5 12.5,1.207 Z m 1.586,3 L 10.5,3.207 4,9.707 V 10 H 4.5 A 0.5,0.5 0 0 1 5,10.5 V 11 H 5.5 A 0.5,0.5 0 0 1 6,11.5 V 12 H 6.293 Z M 3.032,10.675 2.926,10.781 1.398,14.602 5.219,13.074 5.325,12.968 A 0.5,0.5 0 0 1 5,12.5 V 12 H 4.5 A 0.5,0.5 0 0 1 4,11.5 V 11 H 3.5 A 0.5,0.5 0 0 1 3.032,10.675 Z"
           id="path1249" /></g></g></g><g
     inkscape:groupmode="layer"
     id="layer4"
     inkscape:label="Text"><text
       xml:space="preserve"
       style="font-size:4px;font-family:'Segoe UI';-inkscape-font-specification:'Segoe UI';fill:#000000;stroke:none;stroke-width:0.510236;stroke-dasharray:none;stroke-opacity:1"
       x="320.19336"
       y="570.5625"
       id="text1134"><tspan
         sodipodi:role="line"
         id="tspan1132"
         x="320.19336"
         y="570.5625"
         style="font-weight:bold;font-size:4px">Properties</tspan><tspan
         sodipodi:role="line"
         x="320.19336"
         y="575.5625"
         style="font-size:4px"
         id="tspan1186">Stroke width: .265mm</tspan></text><text
       xml:space="preserve"
       style="font-size:4px;font-family:'Segoe UI';-inkscape-font-specification:'Segoe UI';fill:#000000;stroke:none;stroke-width:0.510236;stroke-dasharray:none;stroke-opacity:1"
       x="320.25"
       y="582.75"
       id="text1237"><tspan
         sodipodi:role="line"
         id="tspan1235"
         x="320.25"
         y="582.75"
         style="font-style:normal;font-variant:normal;font-weight:bold;font-stretch:normal;font-family:'Segoe UI';-inkscape-font-specification:'Segoe UI Bold'">Sources:</tspan><tspan
         sodipodi:role="line"
         x="320.25"
         y="587.75"
         id="tspan1239">bsGear</tspan><tspan
         sodipodi:role="line"
         x="320.25"
         y="592.75"
         id="tspan1241">bsPlus-circle</tspan><tspan
         sodipodi:role="line"
         x="320.25"
         y="597.75"
         id="tspan1243">bsCardChecklist</tspan><tspan
         sodipodi:role="line"
         x="320.25"
         y="602.75"
         id="tspan1245">bsPencil</tspan></text></g></svg>
