<?xml version="1.0" encoding="UTF-8" standalone="no"?>
<!-- Created with Inkscape (http://www.inkscape.org/) -->

<svg
   width="16mm"
   height="12.729696mm"
   viewBox="0 0 16 12.729696"
   version="1.1"
   id="svg2496"
   xmlns="http://www.w3.org/2000/svg"
   xmlns:svg="http://www.w3.org/2000/svg">
  <defs
     id="defs2493" />
  <g
     id="layer1"
     transform="translate(-89.36733,-93.96505)">
    <g
       id="g9236"
       transform="matrix(0.80973714,0,0,0.80973714,-241.81516,-377.74163)"
       style="fill:#000000;fill-opacity:1">
      <g
         style="fill:currentColor"
         id="g8005"
         transform="translate(409.0007,580.54266)">
        <path
           id="path7993"
           d="m 1.4992997,2.0003125 a 1.5,1.5 0 0 0 -1.50000007875,1.5 v 9.0000005 a 1.5,1.5 0 0 0 1.50000007875,1.5 h 9.6406253 c -0.07211,-0.162835 -0.111328,-0.337727 -0.111328,-0.511719 0,-0.1659 0.03787,-0.331903 0.103515,-0.488281 H 1.4992997 a 0.5,0.5 0 0 1 -0.50000006,-0.5 V 3.5003125 a 0.5,0.5 0 0 1 0.50000006,-0.5 H 14.4993 a 0.5,0.5 0 0 1 0.5,0.5 v 5.6093751 c 0.167134,-0.076692 0.347838,-0.1171875 0.527344,-0.1171875 0.160302,0 0.320843,0.034361 0.472656,0.095703 V 3.5003125 a 1.5,1.5 0 0 0 -1.5,-1.5 z" />
        <path
           d="M 7,5.5 A 0.5,0.5 0 0 1 7.5,5 h 5 a 0.5,0.5 0 0 1 0,1 h -5 A 0.5,0.5 0 0 1 7,5.5 Z M 5.504,4.646 a 0.5,0.5 0 0 1 0,0.708 l -1.5,1.5 a 0.5,0.5 0 0 1 -0.708,0 l -0.5,-0.5 A 0.5006316,0.5006316 0 1 1 3.504,5.646 L 3.65,5.793 4.796,4.646 a 0.5,0.5 0 0 1 0.708,0 z M 7,9.5 A 0.5,0.5 0 0 1 7.5,9 h 5 a 0.5,0.5 0 0 1 0,1 h -5 A 0.5,0.5 0 0 1 7,9.5 Z M 5.504,8.646 a 0.5,0.5 0 0 1 0,0.708 l -1.5,1.5 a 0.5,0.5 0 0 1 -0.708,0 l -0.5,-0.5 A 0.5006316,0.5006316 0 0 1 3.504,9.646 L 3.65,9.793 4.796,8.646 a 0.5,0.5 0 0 1 0.708,0 z"
           id="path7995"
           style="display:inline" />
      </g>
      <g
         style="fill:#000000;fill-opacity:1"
         id="g7990"
         transform="matrix(0.52907581,0,0,0.52907581,420.29455,589.7988)">
        <path
           d="M 8,4.754 A 3.246,3.246 0 1 0 8,11.246 3.246,3.246 0 0 0 8,4.754 Z M 5.754,8 a 2.246,2.246 0 1 1 4.492,0 2.246,2.246 0 0 1 -4.492,0 z"
           id="path7978"
           style="display:inline;fill:#000000;fill-opacity:1" />
        <path
           d="m 9.796,1.343 c -0.527,-1.79 -3.065,-1.79 -3.592,0 L 6.11,1.662 A 0.873,0.873 0 0 1 4.855,2.182 L 4.563,2.022 C 2.923,1.13 1.13,2.924 2.023,4.563 L 2.182,4.855 A 0.873,0.873 0 0 1 1.662,6.11 L 1.343,6.204 c -1.79,0.527 -1.79,3.065 0,3.592 L 1.662,9.89 a 0.873,0.873 0 0 1 0.52,1.255 l -0.16,0.292 c -0.892,1.64 0.901,3.434 2.541,2.54 l 0.292,-0.159 a 0.873,0.873 0 0 1 1.255,0.52 l 0.094,0.319 c 0.527,1.79 3.065,1.79 3.592,0 L 9.89,14.338 a 0.873,0.873 0 0 1 1.255,-0.52 l 0.292,0.16 c 1.64,0.893 3.434,-0.902 2.54,-2.541 l -0.159,-0.292 a 0.873,0.873 0 0 1 0.52,-1.255 l 0.319,-0.094 c 1.79,-0.527 1.79,-3.065 0,-3.592 L 14.338,6.11 a 0.873,0.873 0 0 1 -0.52,-1.255 l 0.16,-0.292 C 14.871,2.923 13.076,1.13 11.437,2.023 L 11.145,2.182 A 0.873,0.873 0 0 1 9.89,1.662 Z M 7.163,1.626 c 0.246,-0.835 1.428,-0.835 1.674,0 L 8.931,1.945 A 1.873,1.873 0 0 0 11.624,3.06 L 11.915,2.9 c 0.764,-0.415 1.6,0.42 1.184,1.185 L 12.94,4.377 a 1.873,1.873 0 0 0 1.116,2.692 l 0.318,0.094 c 0.835,0.246 0.835,1.428 0,1.674 l -0.319,0.094 a 1.873,1.873 0 0 0 -1.115,2.693 l 0.16,0.291 c 0.415,0.764 -0.42,1.6 -1.185,1.184 L 11.624,12.94 a 1.873,1.873 0 0 0 -2.693,1.116 l -0.094,0.318 c -0.246,0.835 -1.428,0.835 -1.674,0 L 7.069,14.055 A 1.873,1.873 0 0 0 4.377,12.94 L 4.085,13.1 C 3.321,13.515 2.485,12.68 2.901,11.915 L 3.06,11.624 A 1.873,1.873 0 0 0 1.945,8.93 L 1.626,8.836 C 0.791,8.59 0.791,7.408 1.626,7.162 L 1.945,7.068 A 1.873,1.873 0 0 0 3.06,4.377 L 2.9,4.085 C 2.485,3.321 3.32,2.485 4.085,2.901 L 4.377,3.06 A 1.873,1.873 0 0 0 7.069,1.945 Z"
           id="path7980"
           style="display:inline;fill:#000000;fill-opacity:1" />
        <g
           id="path8486"
           style="display:inline" />
      </g>
    </g>
  </g>
</svg>
