<?xml version="1.0" encoding="UTF-8" standalone="no"?>
<svg
   width="100"
   height="116.49346"
   viewBox="0 0 99.999998 116.49346"
   version="1.1"
   xml:space="preserve"
   style="clip-rule:evenodd;fill-rule:evenodd;stroke-linejoin:round;stroke-miterlimit:2"
   id="svg20568"
   xmlns="http://www.w3.org/2000/svg"
   xmlns:svg="http://www.w3.org/2000/svg"><defs
     id="defs20572" /><g
     transform="matrix(0.24,0,0,0.24,-202.78209,-424.62471)"
     id="g20566"><g
       transform="matrix(282.01285,0,0,282.01285,781.64962,1972.3652)"
       id="g8890"><path
         id="path8886"
         style="clip-rule:evenodd;display:inline;fill:none;fill-rule:nonzero;stroke:#000000;stroke-width:0.0627727;stroke-linejoin:round;stroke-miterlimit:2;stroke-dasharray:none;stroke-opacity:1"
         d="M 0.47851757,0.4881535 0.31006073,0.72398083 c -0.008604,0.0120448 -0.0120151,0.0240615 -0.0120151,0.0361068 0,0.0172071 0.005181,0.0309883 0.0172257,0.0430336 0.0120452,0.0120453 0.025765,0.017226 0.0429724,0.017226 0.0137659,0 0.0258435,-0.003474 0.0361679,-0.0120764 L 0.66113505,0.60180672 v 0.15828075 c 0,0.0154864 0.005119,0.0309883 0.0171643,0.0430336 0.0120453,0.0120453 0.0258302,0.017226 0.0413171,0.017226 0.008604,0 0.0172043,-0.00177 0.0258081,-0.005211 0.008604,-0.003442 0.0154963,-0.008565 0.0206586,-0.0154478 l 0.0757078,-0.0850255 0.12045768,-0.13523137 0.12217407,0.13719303 0.073991,0.0830637 c 0.012045,0.0137661 0.027543,0.0206585 0.04475,0.0206585 0.017207,0 0.030988,-0.005181 0.043034,-0.017226 0.012045,-0.0120446 0.017165,-0.0275467 0.017165,-0.0430334 V 0.60180672 l 0.2667233,0.2064638 c 0.010324,0.008604 0.022402,0.0120764 0.036168,0.0120764 0.017207,0 0.030927,-0.005181 0.042973,-0.017226 0.012045,-0.0120449 0.017226,-0.025826 0.017226,-0.0430336 0,-0.0120448 -0.00341,-0.0240615 -0.012015,-0.0361068 L 1.4459796,0.4881535" /><path
         id="path4551"
         style="clip-rule:evenodd;display:inline;fill:none;fill-rule:nonzero;stroke:#000000;stroke-width:0.0627727;stroke-linejoin:round;stroke-miterlimit:2;stroke-dasharray:none;stroke-opacity:1"
         d="M 1.0844248,1.0009964 V 0.71661828 M 0.841793,0.71465506 V 1.0009949" /><path
         d="m 1.3631827,0.15610957 0.1910029,0.26671576 c 0.0086,0.0103246 0.012045,0.0223699 0.012045,0.0361355 0,0.0154868 -0.00516,0.0309732 -0.017208,0.0412978 -0.012045,0.0120453 -0.025811,0.0172076 -0.043019,0.0172076 -0.013766,0 -0.025811,-0.003442 -0.037856,-0.0120453 L 1.1171158,0.23182243 1.0190332,0.47961001 c -0.00516,0.0120453 -0.012045,0.0206491 -0.0223699,0.0275322 -0.0103246,0.006883 -0.0223699,0.0103246 -0.0344147,0.0103246 -0.0120453,0 -0.0240906,-0.003442 -0.0344147,-0.0103246 C 0.9175093,0.50025921 0.9106263,0.49165541 0.905464,0.47961001 L 0.80738136,0.23182243 0.45634896,0.50542118 c -0.0120452,0.008604 -0.0240905,0.0120453 -0.0378564,0.0120453 -0.0172075,0 -0.0309735,-0.005162 -0.0430187,-0.0172076 -0.0120452,-0.0103246 -0.0172075,-0.0258114 -0.0172075,-0.0412978 0,-0.0137661 0.003442,-0.0258114 0.0120452,-0.0361355 L 0.55959379,0.15610957 c -0.0103245,0 -0.0189282,-0.001718 -0.0292527,-0.003442 -0.0103245,-0.001718 -0.0189282,-0.003442 -0.0258112,-0.008604 -0.008604,-0.005162 -0.013766,-0.0103246 -0.0189282,-0.0189284 -0.003442,-0.006883 -0.006883,-0.0172076 -0.006883,-0.02925293 0,-0.01204523 0.005162,-0.02409046 0.013766,-0.03613569 L 0.6421897,-0.15018412 c -0.0120453,-0.003442 -0.0223699,-0.0103245 -0.0309732,-0.0206489 -0.006883,-0.0103245 -0.0103246,-0.0223697 -0.0103246,-0.0361357 0,-0.005162 0,-0.0120452 0.003442,-0.0189282 0.001718,-0.005162 0.005162,-0.0103245 0.008604,-0.0172075 l 0.30113074,-0.41986227 c 0.005162,-0.008604 0.0120453,-0.013766 0.0206491,-0.0189282 0.008604,-0.005162 0.0189284,-0.006883 0.0275322,-0.006883 0.0103246,0 0.0189284,0.001721 0.0275322,0.006883 0.008604,0.005162 0.0154868,0.0103245 0.0206491,0.0189282 l 0.3011308,0.41986227 c 0.00344,0.006883 0.00688,0.0120452 0.010325,0.0172075 0.00172,0.006883 0.00344,0.013766 0.00344,0.0189282 0,0.013766 -0.00516,0.0258112 -0.012045,0.0361357 -0.00688,0.0103245 -0.017208,0.0172075 -0.030974,0.0206489 l 0.1497042,0.20993114 c 0.0086,0.01204523 0.013766,0.02409046 0.013766,0.03613569 0,0.01204533 -0.00172,0.02236989 -0.00688,0.02925294 -0.00516,0.008604 -0.010325,0.0137661 -0.018928,0.0189284 -0.00688,0.005162 -0.015487,0.006883 -0.025811,0.008604 -0.0086,0.001723 -0.018928,0.003442 -0.030973,0.003442 z"
         style="fill:none;fill-rule:nonzero;stroke:#000000;stroke-width:0.0627727;stroke-dasharray:none;stroke-opacity:1"
         id="path4554" /><path
         style="fill:none;stroke:#000000;stroke-width:0.0626032;stroke-dasharray:none;stroke-opacity:1"
         d="M 0.22437186,0.96969483 H 1.7018459"
         id="path4920" /></g></g></svg>
